<svg xmlns="http://www.w3.org/2000/svg" viewBox="0 0 464 472"><defs><style>.cls-1{fill:#d79f4c;}</style></defs><g id="Layer_2" data-name="Layer 2"><g id="Layer_3" data-name="Layer 3"><circle class="cls-1" cx="312" cy="24" r="24"/><path class="cls-1" d="M0,352a24,24,0,0,0,24,24H440a24,24,0,0,0,24-24V328H0Zm224-8h16v16H224Z"/><polygon class="cls-1" points="189.77 392 179.1 424 284.9 424 274.23 392 189.77 392"/><path class="cls-1" d="M153,120a9,9,0,0,0,6.34-2.62l35-35A8,8,0,0,1,200,80h40a8,8,0,0,1,5.66,13.66l-81,81A31.74,31.74,0,0,1,142.06,184H104a8,8,0,0,0,0,16h50.74a24.19,24.19,0,0,0,17-7l30.63-30.64A8,8,0,0,1,208,160h32a8,8,0,0,1,5.66,2.34L265,181.66a23.81,23.81,0,0,1,7,17V232a8,8,0,0,0,16,0V192.57a31.82,31.82,0,0,0-9.37-22.63l-17-17a19.32,19.32,0,0,1,13.65-33H360a8,8,0,0,0,0-16H292.69A20.71,20.71,0,0,1,272,83.31v-8L260.69,64H193.94a15.94,15.94,0,0,0-11.32,4.69l-36,36A9,9,0,0,0,153,120Z"/><path class="cls-1" d="M296,440H168a24,24,0,0,0-24,24v8H320v-8A24,24,0,0,0,296,440Z"/><path class="cls-1" d="M440,104H382.53a23.75,23.75,0,0,1,1.47,8,24,24,0,0,1-24,24H275.31a3.31,3.31,0,0,0-3.31,3.31,3.26,3.26,0,0,0,1,2.35l17,17A47.66,47.66,0,0,1,304,192.57V232a24,24,0,0,1-48,0V198.63a8,8,0,0,0-2.34-5.66l-17-17H211.31L183,204.29A39.73,39.73,0,0,1,154.74,216H104a24,24,0,0,1,0-48h38.06a15.94,15.94,0,0,0,11.32-4.69L220.69,96H203.31l-32.69,32.69A24.8,24.8,0,0,1,129.12,104H24A24,24,0,0,0,0,128V312H464V128A24,24,0,0,0,440,104ZM32,296H16V248H32Zm32,0H48V248H64Zm384-16H344v16H328V280H80V264H328V248h16v16H448Z"/></g></g></svg>